<?xml version="1.0" encoding="UTF-8"?>
<!DOCTYPE svg PUBLIC "-//W3C//DTD SVG 1.1//EN" "http://www.w3.org/Graphics/SVG/1.1/DTD/svg11.dtd">
<!-- Creator: CorelDRAW X6 -->
<svg xmlns="http://www.w3.org/2000/svg" xml:space="preserve" width="3.54651in" height="3.54651in" version="1.1" style="shape-rendering:geometricPrecision; text-rendering:geometricPrecision; image-rendering:optimizeQuality; fill-rule:evenodd; clip-rule:evenodd"
viewBox="0 0 4796 4796"
 xmlns:xlink="http://www.w3.org/1999/xlink">
 <defs>
  <style type="text/css">
   <![CDATA[
    .fil0 {fill:#000000}
    .fil1 {fill:#FFFF00}
   ]]>
  </style>
 </defs>
 <g id="Layer_x0020_1">
  <metadata id="CorelCorpID_0Corel-Layer"/>
  <g id="_858425792">
   <rect class="fil0" width="4796" height="4796"/>
   <g>
    <path class="fil1" d="M347 660c1133,0 2051,778 2051,1738 0,960 -918,1738 -2051,1738 -6,0 -11,0 -17,0l0 -330c6,0 11,0 17,0 918,0 1662,-630 1662,-1408 0,-687 -582,-1260 -1351,-1383l0 1383 -328 0 0 -1408 0 -198 0 -132c6,0 11,0 17,0z"/>
    <path class="fil1" d="M4449 4136c-1133,0 -2051,-778 -2051,-1738 0,-960 918,-1738 2051,-1738 6,0 11,0 17,0l0 330c-6,0 -11,0 -17,0 -918,0 -1662,630 -1662,1408 0,687 582,1260 1351,1383l0 -1383 328 0 0 1408 0 198 0 132c-6,0 -11,0 -17,0z"/>
   </g>
   <g>
    <rect class="fil1" width="4796" height="330"/>
    <rect class="fil1" y="4466" width="4796" height="330"/>
   </g>
  </g>
 </g>
</svg>
